<svg xmlns="http://www.w3.org/2000/svg" viewBox="0 0 670 200" width="670" height="200"><path d="M96.0675,35.0 L103.9325,35.0 L150.7,165.0 L137.11499999999998,165.0 Z" fill="#1f4e5f"/><path d="M96.0675,35.0 L103.9325,35.0 L62.885,165.0 L49.3,165.0 Z" fill="#1f4e5f"/><path d="M26.991999999999997,120.8 Q44.23,114.3 61.467999999999996,120.8 L181.12,120.8 L181.12,126.1625 L61.467999999999996,126.1625 Q44.23,119.6625 26.991999999999997,126.1625 Z" fill="#1f4e5f"/><circle cx="168.952" cy="109.1" r="5.85" fill="#1f4e5f"/><path d="M247.947166015625 92.95366796875 249.070373046875 90.79365625H275.18720703125L275.85920703125 92.95366796875ZM297.617626953125 116.848Q298.044828125 116.848 298.044828125 117.424Q298.044828125 118.0 297.617626953125 118.0Q294.843224609375 118.0 291.88162109375 117.80799999999999Q288.920017578125 117.616 286.1984140625 117.616Q283.092810546875 117.616 280.8248076171875 117.80799999999999Q278.5568046875 118.0 275.79200000000003 118.0Q275.408 118.0 275.408 117.424Q275.408 116.848 275.79200000000003 116.848Q280.519982421875 116.848 281.566373046875 115.3431982421875Q282.612763671875 113.838396484375 280.529556640625 109.50398828125L259.82718359375 66.520087890625L262.94721875 61.907207031249996L244.16001171875 105.371177734375Q241.673609375 111.18397656249999 243.905615234375 114.01598828125Q246.13762109375 116.848 252.14720703125 116.848Q252.62720703125 116.848 252.62720703125 117.424Q252.62720703125 118.0 252.14720703125 118.0Q249.26720703125 118.0 246.86720703125002 117.80799999999999Q244.46720703125 117.616 240.81920703125 117.616Q237.28640234375 117.616 235.13600000000002 117.80799999999999Q232.98559765625 118.0 229.93279296875 118.0Q229.54879296875 118.0 229.54879296875 117.424Q229.54879296875 116.848 229.93279296875 116.848Q232.52479296875 116.848 234.4231923828125 115.8231982421875Q236.321591796875 114.798396484375 238.087994140625 112.10799121093751Q239.854396484375 109.41758593750001 241.99040234375 104.4639765625L262.40001171875 57.29920703125Q262.548810546875 57.011207031249995 263.1320146484375 56.989606445312496Q263.71521875 56.968005859375 263.81121875 57.29920703125L286.86083984375 104.848Q289.112041015625 109.518396484375 290.8184404296875 112.158396484375Q292.52483984375 114.798396484375 294.14483691406247 115.8231982421875Q295.764833984375 116.848 297.617626953125 116.848Z" fill="#141414"/><path d="M324.33920703125 116.752 360.93914257812503 60.4Q361.27994140625003 59.92 361.20554199218753 59.775999999999996Q361.13114257812504 59.632 360.459142578125 59.632Q352.18399414062503 59.632 346.5416181640625 59.7928017578125Q340.8992421875 59.953603515625 337.28004687500004 60.520005859375Q333.6608515625 61.086408203124996 331.48164453125 62.320011718749996Q329.3024375 63.553615234375 327.8840263671875 65.598419921875Q326.46561523437504 67.643224609375 325.20320703125003 70.84482812499999Q325.10720703125 71.08962695312499 324.53120703125 70.96722753906249Q323.95520703125004 70.84482812499999 324.05120703125 70.609626953125L327.89120703125 55.12Q327.98720703125 54.928 328.56320703125004 55.024Q329.13920703125 55.12 329.04320703125 55.312Q328.75520703125 57.04 329.81120703125 57.519999999999996Q330.86720703125 58.0 334.51520703125004 58.0Q340.27520703125003 58.0 348.62720703125 58.0Q356.97920703125 58.0 369.55520703125 58.0Q370.03520703125 58.0 370.2488076171875 58.4536005859375Q370.462408203125 58.907201171875 370.22720703125003 59.248L334.107271484375 115.408Q333.723271484375 115.888 333.819271484375 116.03200000000001Q333.915271484375 116.176 334.5440703125 116.176Q341.998443359375 116.176 347.9048251953125 116.176Q353.81120703125004 116.176 357.42079296875 116.176Q361.50078125000005 116.176 364.50558593750003 114.822390625Q367.510390625 113.46878125 369.4183994140625 110.85757421875Q371.326408203125 108.2463671875 371.95520703125004 104.526373046875Q372.05120703125 104.291171875 372.53120703125 104.291171875Q373.01120703125 104.291171875 373.01120703125 104.526373046875L371.66720703125003 117.232Q371.66720703125003 117.52 371.47520703125 117.856Q371.28320703125 118.192 370.80320703125 118.192Q363.69920703125 118.096 355.77920703125005 118.048Q347.85920703125004 118.0 339.93920703125 118.0Q332.01920703125 118.0 324.872005859375 118.0Q324.488005859375 118.0 324.2696064453125 117.568Q324.05120703125 117.136 324.33920703125 116.752Z" fill="#141414"/><path d="M452.29279882812506 69.073626953125Q452.29279882812506 64.24962109375 450.15199414062505 61.700810546875Q448.01118945312504 59.152 443.78718945312505 59.152Q443.54239062500005 59.152 443.54239062500005 58.576Q443.54239062500005 58.0 443.78718945312505 58.0Q446.02879296875005 58.0 448.41439648437506 58.144Q450.8 58.288 453.61760351562504 58.288Q455.99840820312505 58.288 458.36241113281255 58.144Q460.72641406250006 58.0 462.68001757812505 58.0Q462.87201757812505 58.0 462.87201757812505 58.576Q462.87201757812505 59.152 462.68001757812505 59.152Q458.840017578125 59.152 456.88161523437503 61.700810546875Q454.92321289062505 64.24962109375 454.92321289062505 69.073626953125V96.18401757812501Q454.92321289062505 103.422408203125 452.05281054687504 108.5944052734375Q449.182408203125 113.76640234375 443.9912041015625 116.5288017578125Q438.8 119.291201171875 431.86399414062504 119.291201171875Q424.80319531250007 119.291201171875 419.41519238281256 116.5240029296875Q414.02718945312506 113.7568046875 411.03918652343754 108.664005859375Q408.05118359375 103.57120703125 408.05118359375 96.5728046875V65.776Q408.05118359375 62.992 407.49198535156256 61.599999999999994Q406.93278710937506 60.208 405.2599912109375 59.68Q403.58719531250006 59.152 400.2848046875 59.152Q400.04960351562505 59.152 400.04960351562505 58.576Q400.04960351562505 58.0 400.2848046875 58.0Q402.67520703125 58.0 405.58881054687504 58.144Q408.5024140625 58.288 411.80001757812505 58.288Q415.23682226562505 58.288 418.1768251953125 58.144Q421.11682812500004 58.0 423.35843164062504 58.0Q423.64643164062505 58.0 423.64643164062505 58.576Q423.64643164062505 59.152 423.35843164062504 59.152Q420.05604101562506 59.152 418.40484570312503 59.728Q416.753650390625 60.304 416.19925097656255 61.744Q415.64485156250004 63.184 415.64485156250004 65.96799999999999V93.2128046875Q415.64485156250004 104.756810546875 420.66564453125 110.45920117187501Q425.6864375 116.161591796875 434.45601757812506 116.161591796875Q442.89920703125006 116.161591796875 447.59600292968753 110.91760058593749Q452.29279882812506 105.673609375 452.29279882812506 96.280017578125Z" fill="#141414"/><path d="M538.20796484375 118.0Q536.6623671875001 118.0 533.1559736328126 114.32080175781249Q529.649580078125 110.641603515625 524.715189453125 103.74640527343749Q519.7807988281251 96.85120703125 513.641609375 87.34720703125001L520.1504609375 85.345591796875Q528.1472539062501 96.961591796875 533.7560498046876 103.8903935546875Q539.3648457031251 110.8191953125 543.6944433593751 113.83359765624999Q548.024041015625 116.848 552.0224375 116.848Q552.267236328125 116.848 552.267236328125 117.424Q552.267236328125 118.0 552.0224375 118.0Q546.622408203125 118.0 543.2167900390625 118.0Q539.811171875 118.0 538.20796484375 118.0ZM515.13921875 57.711999999999996Q523.1792363281251 57.711999999999996 527.4560468750001 61.1127958984375Q531.732857421875 64.513591796875 531.732857421875 70.22079296875Q531.732857421875 75.568 528.6704550781251 79.8040029296875Q525.6080527343751 84.040005859375 520.664052734375 86.44000585937499Q515.720052734375 88.840005859375 509.98405859375004 88.840005859375Q508.904052734375 88.840005859375 507.6440498046875 88.78720703125Q506.384046875 88.734408203125 505.33764453125 88.638408203125V110.224Q505.33764453125 113.008 505.87044335937503 114.44800000000001Q506.40324218750004 115.888 508.0808369140625 116.368Q509.758431640625 116.848 513.1040234375 116.848Q513.348822265625 116.848 513.348822265625 117.424Q513.348822265625 118.0 513.1040234375 118.0Q510.71362109375 118.0 507.82641699218755 117.904Q504.939212890625 117.808 501.449609375 117.808Q498.20480468750003 117.808 495.2168017578125 117.904Q492.22879882812504 118.0 489.83839648437504 118.0Q489.6031953125 118.0 489.6031953125 117.424Q489.6031953125 116.848 489.83839648437504 116.848Q493.18398828125004 116.848 494.86158300781256 116.368Q496.539177734375 115.888 497.1463759765625 114.44800000000001Q497.75357421875003 113.008 497.75357421875003 110.224V65.776Q497.75357421875003 62.992 497.1943759765625 61.599999999999994Q496.635177734375 60.208 494.983982421875 59.68Q493.33278710937503 59.152 489.98719531250003 59.152Q489.74239648437504 59.152 489.74239648437504 58.576Q489.74239648437504 58.0 489.98719531250003 58.0Q492.32479882812504 58.0 495.2648017578125 58.144Q498.20480468750003 58.288 501.449609375 58.288Q504.51201171875005 58.288 508.38320996093756 58.0Q512.2544082031251 57.711999999999996 515.13921875 57.711999999999996ZM523.851189453125 73.288005859375Q523.851189453125 67.888 522.4087958984376 64.859201171875Q520.96640234375 61.83040234375 518.3432158203125 60.568005859375Q515.720029296875 59.305609374999996 512.1248515625 59.305609374999996Q508.49604687500005 59.305609374999996 506.91684570312503 60.640011718749996Q505.33764453125 61.974414062499996 505.33764453125 65.96799999999999V86.21440234375Q506.68164453125 86.353603515625 508.2440439453125 86.449603515625Q509.806443359375 86.545603515625 511.01124218750005 86.545603515625Q518.100810546875 86.545603515625 520.976 83.2408076171875Q523.851189453125 79.93601171875 523.851189453125 73.288005859375Z" fill="#141414"/><path d="M590.187166015625 92.95366796875 591.310373046875 90.79365625H617.42720703125L618.09920703125 92.95366796875ZM639.857626953125 116.848Q640.284828125 116.848 640.284828125 117.424Q640.284828125 118.0 639.857626953125 118.0Q637.0832246093751 118.0 634.12162109375 117.80799999999999Q631.160017578125 117.616 628.4384140625 117.616Q625.332810546875 117.616 623.0648076171874 117.80799999999999Q620.7968046875 118.0 618.032 118.0Q617.648 118.0 617.648 117.424Q617.648 116.848 618.032 116.848Q622.7599824218751 116.848 623.806373046875 115.3431982421875Q624.852763671875 113.838396484375 622.7695566406251 109.50398828125L602.06718359375 66.520087890625L605.18721875 61.907207031249996L586.40001171875 105.371177734375Q583.913609375 111.18397656249999 586.145615234375 114.01598828125Q588.37762109375 116.848 594.38720703125 116.848Q594.86720703125 116.848 594.86720703125 117.424Q594.86720703125 118.0 594.38720703125 118.0Q591.50720703125 118.0 589.10720703125 117.80799999999999Q586.70720703125 117.616 583.05920703125 117.616Q579.52640234375 117.616 577.376 117.80799999999999Q575.22559765625 118.0 572.1727929687501 118.0Q571.78879296875 118.0 571.78879296875 117.424Q571.78879296875 116.848 572.1727929687501 116.848Q574.76479296875 116.848 576.6631923828126 115.8231982421875Q578.5615917968751 114.798396484375 580.327994140625 112.10799121093751Q582.094396484375 109.41758593750001 584.23040234375 104.4639765625L604.64001171875 57.29920703125Q604.788810546875 57.011207031249995 605.3720146484375 56.989606445312496Q605.95521875 56.968005859375 606.05121875 57.29920703125L629.10083984375 104.848Q631.352041015625 109.518396484375 633.0584404296875 112.158396484375Q634.76483984375 114.798396484375 636.3848369140625 115.8231982421875Q638.004833984375 116.848 639.857626953125 116.848Z" fill="#141414"/><path d="M237.93359375 160.0V143.994140625H240.833984375L244.7763671875 154.091796875Q244.916015625 154.4462890625 245.09326171875 154.97802734375Q245.2705078125 155.509765625 245.46923828125 156.1328125Q245.66796875 156.755859375 245.8505859375 157.37353515625Q246.033203125 157.9912109375 246.1728515625 158.517578125H245.7216796875Q245.8720703125 158.0234375 246.0546875 157.41650390625Q246.2373046875 156.8095703125 246.43603515625 156.18115234375Q246.634765625 155.552734375 246.8173828125 155.0048828125Q247.0 154.45703125 247.1396484375 154.091796875L251.0283203125 143.994140625H253.939453125V160.0H251.9306640625V150.8583984375Q251.9306640625 150.3642578125 251.93603515625 149.73046875Q251.94140625 149.0966796875 251.95751953125 148.3984375Q251.9736328125 147.7001953125 251.98974609375 146.98046875Q252.005859375 146.2607421875 252.0166015625 145.583984375H252.1884765625Q251.962890625 146.3251953125 251.71044921875 147.09326171875Q251.4580078125 147.861328125 251.21630859375 148.57568359375Q250.974609375 149.2900390625 250.759765625 149.880859375Q250.544921875 150.4716796875 250.39453125 150.8583984375L246.8173828125 160.0H245.044921875L241.4140625 150.8583984375Q241.263671875 150.482421875 241.0595703125 149.90771484375Q240.85546875 149.3330078125 240.61376953125 148.62939453125Q240.3720703125 147.92578125 240.1142578125 147.14697265625Q239.8564453125 146.3681640625 239.587890625 145.583984375H239.78125Q239.802734375 146.185546875 239.81884765625 146.8837890625Q239.8349609375 147.58203125 239.845703125 148.29638671875Q239.8564453125 149.0107421875 239.8671875 149.67138671875Q239.8779296875 150.33203125 239.8779296875 150.8583984375V160.0Z" fill="#141414"/><path d="M273.534921875 160.21484375Q271.4831640625 160.21484375 269.87720703125 159.22119140625Q268.27125 158.2275390625 267.347421875 156.38525390625Q266.42359375 154.54296875 266.42359375 152.0078125Q266.42359375 149.4619140625 267.347421875 147.61962890625Q268.27125 145.77734375 269.87720703125 144.7783203125Q271.4831640625 143.779296875 273.534921875 143.779296875Q275.5866796875 143.779296875 277.187265625 144.7783203125Q278.7878515625 145.77734375 279.70630859375 147.61962890625Q280.624765625 149.4619140625 280.624765625 152.0078125Q280.624765625 154.54296875 279.70630859375 156.38525390625Q278.7878515625 158.2275390625 277.187265625 159.22119140625Q275.5866796875 160.21484375 273.534921875 160.21484375ZM273.534921875 158.32421875Q274.9636328125 158.32421875 276.11841796875 157.59912109375Q277.273203125 156.8740234375 277.95533203125 155.46142578125Q278.6374609375 154.048828125 278.6374609375 152.0078125Q278.6374609375 149.9453125 277.95533203125 148.53271484375Q277.273203125 147.1201171875 276.11841796875 146.39501953125Q274.9636328125 145.669921875 273.534921875 145.669921875Q272.09546875 145.669921875 270.9353125 146.400390625Q269.77515625 147.130859375 269.09302734375 148.54345703125Q268.4108984375 149.9560546875 268.4108984375 152.0078125Q268.4108984375 154.048828125 269.09302734375 155.4560546875Q269.77515625 156.86328125 270.9353125 157.59375Q272.09546875 158.32421875 273.534921875 158.32421875Z" fill="#141414"/><path d="M298.1040234375 160.0H294.2368359375V158.1953125H297.9751171875Q299.9301953125 158.1953125 301.21388671875 157.44873046875Q302.497578125 156.7021484375 303.1313671875 155.3056640625Q303.76515625 153.9091796875 303.76515625 151.96484375Q303.76515625 150.0419921875 303.13673828125 148.66162109375Q302.5083203125 147.28125 301.26759765625 146.5400390625Q300.026875 145.798828125 298.1684765625 145.798828125H294.1508984375V143.994140625H298.308125Q300.649921875 143.994140625 302.30958984375 144.9501953125Q303.9692578125 145.90625 304.85548828125 147.69482421875Q305.74171875 149.4833984375 305.74171875 151.96484375Q305.74171875 154.4677734375 304.8501171875 156.26708984375Q303.958515625 158.06640625 302.2505078125 159.033203125Q300.5425 160.0 298.1040234375 160.0ZM295.149921875 143.994140625V160.0H293.10890625V143.994140625Z" fill="#141414"/><path d="M318.225859375 160.0V143.994140625H327.979765625V145.798828125H320.266875V151.01953125H327.4533984375V152.82421875H320.266875V158.1953125H328.0764453125V160.0Z" fill="#141414"/><path d="M340.68949218750004 160.0V143.994140625H342.73050781250004V158.1953125H350.14261718750004V160.0Z" fill="#141414"/><path d="M367.49296875000005 160.279296875Q365.76347656250005 160.279296875 364.49052734375005 159.720703125Q363.21757812500005 159.162109375 362.49785156250005 158.15771484375Q361.77812500000005 157.1533203125 361.68144531250005 155.810546875H363.77617187500005Q363.86210937500005 156.712890625 364.38847656250005 157.29833984375Q364.91484375000005 157.8837890625 365.73662109375005 158.16845703125Q366.55839843750005 158.453125 367.49296875000005 158.453125Q368.57792968750005 158.453125 369.44267578125005 158.0986328125Q370.30742187500005 157.744140625 370.81230468750005 157.099609375Q371.31718750000005 156.455078125 371.31718750000005 155.6064453125Q371.31718750000005 154.8330078125 370.88212890625005 154.349609375Q370.44707031250005 153.8662109375 369.72734375000005 153.5546875Q369.00761718750005 153.2431640625 368.14824218750005 153.0068359375L366.21464843750005 152.458984375Q364.28105468750005 151.9111328125 363.20683593750005 150.890625Q362.13261718750005 149.8701171875 362.13261718750005 148.2802734375Q362.13261718750005 146.9267578125 362.86308593750005 145.91162109375Q363.59355468750005 144.896484375 364.83964843750005 144.337890625Q366.08574218750005 143.779296875 367.63261718750005 143.779296875Q369.21171875000005 143.779296875 370.42558593750005 144.337890625Q371.63945312500005 144.896484375 372.34306640625005 145.85791015625Q373.04667968750005 146.8193359375 373.08964843750005 148.033203125H371.09160156250005Q370.95195312500005 146.8623046875 369.97441406250005 146.22314453125Q368.99687500000005 145.583984375 367.56816406250005 145.583984375Q366.53691406250005 145.583984375 365.75810546875005 145.92236328125Q364.97929687500005 146.2607421875 364.54960937500005 146.84619140625Q364.11992187500005 147.431640625 364.11992187500005 148.18359375Q364.11992187500005 149.021484375 364.64091796875005 149.53173828125Q365.16191406250005 150.0419921875 365.87626953125005 150.32666015625Q366.59062500000005 150.611328125 367.17070312500005 150.7724609375L368.77128906250005 151.212890625Q369.41582031250005 151.384765625 370.19462890625005 151.685546875Q370.97343750000005 151.986328125 371.68242187500005 152.48583984375Q372.39140625000005 152.9853515625 372.84794921875005 153.75341796875Q373.30449218750005 154.521484375 373.30449218750005 155.638671875Q373.30449218750005 156.94921875 372.62236328125005 158.001953125Q371.94023437500005 159.0546875 370.64042968750005 159.6669921875Q369.34062500000005 160.279296875 367.49296875000005 160.279296875Z" fill="#141414"/></svg>